<?xml version="1.0" standalone="no"?>
<!DOCTYPE svg PUBLIC "-//W3C//DTD SVG 20010904//EN"
 "http://www.w3.org/TR/2001/REC-SVG-20010904/DTD/svg10.dtd">
<svg version="1.0" xmlns="http://www.w3.org/2000/svg"
 width="760.000000pt" height="940.000000pt" viewBox="0 0 760.000000 940.000000"
 preserveAspectRatio="xMidYMid meet">

<g transform="translate(0.000000,940.000000) scale(0.100000,-0.100000)"
fill="#000000" stroke="none">
<path d="M5230 8899 c-345 -89 -686 -459 -775 -839 -22 -95 -20 -223 5 -297
27 -78 101 -163 173 -196 87 -41 155 -50 327 -42 297 13 437 -17 711 -155 200
-101 293 -131 412 -133 102 -2 148 18 194 86 45 67 57 136 50 297 -9 213 -67
426 -182 666 -228 479 -564 705 -915 613z m258 -237 c231 -72 454 -393 564
-811 25 -98 30 -136 32 -246 l1 -130 -35 3 c-61 5 -131 33 -297 118 -277 142
-397 169 -733 166 -131 0 -238 3 -257 9 -18 6 -44 24 -58 40 -22 27 -25 40
-25 106 0 170 113 387 292 559 182 175 352 237 516 186z"/>
<path d="M2206 8669 c-277 -32 -598 -170 -789 -339 -114 -101 -216 -277 -264
-456 -25 -91 -27 -115 -27 -289 0 -204 11 -278 69 -458 87 -267 253 -495 420
-578 62 -30 79 -34 150 -34 149 0 232 65 347 271 232 416 481 691 733 810 131
62 207 75 400 72 147 -3 162 -1 187 17 35 25 58 73 58 118 0 48 -110 266 -190
379 -71 100 -216 244 -308 307 -220 149 -501 213 -786 180z m363 -254 c241
-56 442 -209 586 -447 l33 -55 -92 -7 c-443 -32 -820 -348 -1191 -999 -91
-159 -117 -177 -193 -138 -91 47 -201 202 -273 383 -71 181 -99 447 -64 617
32 156 99 285 195 375 143 134 411 253 643 286 88 12 269 5 356 -15z"/>
<path d="M6448 6019 c-187 -16 -339 -150 -423 -373 -59 -156 -84 -322 -92
-591 -12 -454 26 -576 252 -798 66 -65 127 -130 137 -145 25 -38 23 -117 -6
-197 -29 -81 -134 -256 -192 -323 -41 -47 -145 -112 -178 -112 -47 0 3 109
114 250 101 128 130 186 130 259 0 107 -70 177 -206 206 -143 30 -381 11 -494
-41 -120 -55 -164 -115 -164 -224 0 -90 29 -147 107 -212 34 -28 69 -60 78
-72 21 -27 79 -142 79 -157 0 -9 -18 -10 -62 -5 -97 10 -215 44 -313 91 -96
46 -151 92 -162 134 -9 38 10 134 71 348 87 307 89 321 83 512 -15 480 -197
947 -410 1050 -71 34 -181 53 -317 54 -308 3 -570 -100 -761 -299 -104 -109
-157 -199 -225 -378 -43 -112 -70 -159 -124 -213 -56 -56 -111 -77 -193 -71
-147 9 -318 139 -421 318 -132 231 -143 247 -231 336 -75 76 -105 98 -175 132
-233 112 -511 114 -739 6 -349 -164 -605 -596 -685 -1154 -34 -238 -40 -341
-40 -670 1 -682 99 -1317 290 -1887 232 -690 560 -1119 965 -1261 349 -123
732 -18 994 271 153 169 272 358 510 812 243 462 293 542 439 708 131 150 323
294 470 354 71 29 92 33 174 33 169 0 285 -35 535 -164 293 -150 495 -168 808
-70 474 148 983 626 1263 1185 190 380 226 670 145 1159 -53 318 -153 591
-292 800 -70 104 -215 245 -307 297 -142 79 -287 114 -432 102z m197 -260
c329 -102 564 -548 626 -1189 37 -387 -40 -665 -289 -1042 -316 -478 -778
-819 -1177 -868 -157 -19 -237 1 -477 121 -250 125 -407 169 -603 169 -115 0
-196 -20 -312 -75 -287 -136 -581 -423 -764 -747 -27 -49 -116 -214 -196 -366
-251 -476 -349 -636 -488 -788 -322 -357 -789 -334 -1120 53 -182 212 -321
479 -445 853 -169 509 -262 1078 -277 1690 -17 706 85 1176 324 1494 138 185
316 280 523 279 164 0 293 -48 389 -146 62 -63 60 -60 156 -227 91 -157 142
-227 218 -297 144 -131 309 -203 463 -203 144 1 237 41 344 149 83 84 124 154
188 318 63 164 117 242 230 332 116 94 276 152 457 166 90 8 234 -9 277 -31
130 -67 277 -526 280 -874 1 -125 0 -130 -92 -455 -79 -279 -86 -385 -34 -492
31 -65 123 -151 217 -202 203 -113 554 -176 674 -122 41 19 42 19 85 -2 107
-54 294 2 440 132 60 54 181 234 242 361 61 127 79 203 74 306 -7 130 -41 189
-200 345 -197 194 -215 250 -205 639 8 290 30 422 96 565 79 169 185 213 376
154z m-727 -1797 c9 -6 -5 -31 -52 -89 -35 -45 -73 -98 -86 -117 -12 -20 -23
-36 -25 -36 -1 0 -22 26 -45 58 -23 31 -67 77 -97 101 -63 51 -61 54 40 76 68
15 245 19 265 7z"/>
</g>
</svg>
